HIERARCHY
ROOT hip
{
  OFFSET 0 0 0
  CHANNELS 6 Xposition Yposition Zposition Zrotation Yrotation Xrotation
  JOINT abdomen
  {
    OFFSET 0 20.6881 -0.73152
    CHANNELS 3 Zrotation Xrotation Yrotation
    JOINT chest
    {
      OFFSET 0 11.7043 -0.48768
      CHANNELS 3 Zrotation Xrotation Yrotation
      JOINT neck
      {
        OFFSET 0 22.1894 -2.19456
        CHANNELS 3 Zrotation Xrotation Yrotation
        JOINT head
        {
          OFFSET -0.24384 7.07133 1.2192
          CHANNELS 3 Zrotation Xrotation Yrotation
          JOINT leftEye
          {
            OFFSET 4.14528 8.04674 8.04672
            CHANNELS 3 Zrotation Xrotation Yrotation
            End Site
            {
              OFFSET 1 0 0
            }
          }
          JOINT rightEye
          {
            OFFSET -3.6576 8.04674 8.04672
            CHANNELS 3 Zrotation Xrotation Yrotation
            End Site
            {
              OFFSET 1 0 0
            }
          }
        }
      }
      JOINT rCollar
      {
        OFFSET -2.68224 19.2634 -4.8768
        CHANNELS 3 Zrotation Xrotation Yrotation
        JOINT rShldr
        {
          OFFSET -8.77824 -1.95073 1.46304
          CHANNELS 3 Zrotation Xrotation Yrotation
          JOINT rForeArm
          {
            OFFSET -28.1742 -1.7115 0.48768
            CHANNELS 3 Zrotation Xrotation Yrotation
            JOINT rHand
            {
              OFFSET -22.5879 0.773209 7.07136
              CHANNELS 3 Zrotation Xrotation Yrotation
              JOINT rThumb1
              {
                OFFSET -1.2192 -0.487915 3.41376
                CHANNELS 3 Zrotation Xrotation Yrotation
                JOINT rThumb2
                {
                  OFFSET -3.37035 -0.52449 3.41376
                  CHANNELS 3 Zrotation Xrotation Yrotation
                  End Site
                  {
                    OFFSET -1.78271 -1.18214 1.43049
                  }
                }
              }
              JOINT rIndex1
              {
                OFFSET -7.75947 0.938293 5.60832
                CHANNELS 3 Zrotation Xrotation Yrotation
                JOINT rIndex2
                {
                  OFFSET -2.54057 -0.884171 1.56538
                  CHANNELS 3 Zrotation Xrotation Yrotation
                  End Site
                  {
                    OFFSET -1.62519 -0.234802 1.16502
                  }
                }
              }
              JOINT rMid1
              {
                OFFSET -8.24714 1.18213 3.41376
                CHANNELS 3 Zrotation Xrotation Yrotation
                JOINT rMid2
                {
                  OFFSET -3.10165 -0.590103 1.0647
                  CHANNELS 3 Zrotation Xrotation Yrotation
                  End Site
                  {
                    OFFSET -2.48547 -0.328903 0.83742
                  }
                }
              }
              JOINT rRing1
              {
                OFFSET -8.82822 0.546677 1.51678
                CHANNELS 3 Zrotation Xrotation Yrotation
                JOINT rRing2
                {
                  OFFSET -2.60934 -0.819778 -0.0198488
                  CHANNELS 3 Zrotation Xrotation Yrotation
                  End Site
                  {
                    OFFSET -2.33842 -0.294052 0.168128
                  }
                }
              }
              JOINT rPinky1
              {
                OFFSET -8.27202 -0.0477905 -0.4584
                CHANNELS 3 Zrotation Xrotation Yrotation
                JOINT rPinky2
                {
                  OFFSET -1.82734 -0.647385 -0.700984
                  CHANNELS 3 Zrotation Xrotation Yrotation
                  End Site
                  {
                    OFFSET -1.69225 -0.51767 -0.607171
                  }
                }
              }
            }
          }
        }
      }
      JOINT lCollar
      {
        OFFSET 2.68224 19.2634 -4.8768
        CHANNELS 3 Zrotation Xrotation Yrotation
        JOINT lShldr
        {
          OFFSET 8.77824 -1.95073 1.46304
          CHANNELS 3 Zrotation Xrotation Yrotation
          JOINT lForeArm
          {
            OFFSET 28.1742 -1.7115 0.48768
            CHANNELS 3 Zrotation Xrotation Yrotation
            JOINT lHand
            {
              OFFSET 22.5879 0.773209 7.07136
              CHANNELS 3 Zrotation Xrotation Yrotation
              JOINT lThumb1
              {
                OFFSET 1.2192 -0.487915 3.41376
                CHANNELS 3 Zrotation Xrotation Yrotation
                JOINT lThumb2
                {
                  OFFSET 3.37035 -0.52449 3.41376
                  CHANNELS 3 Zrotation Xrotation Yrotation
                  End Site
                  {
                    OFFSET 1.78271 -1.18214 1.43049
                  }
                }
              }
              JOINT lIndex1
              {
                OFFSET 7.75947 0.938293 5.60832
                CHANNELS 3 Zrotation Xrotation Yrotation
                JOINT lIndex2
                {
                  OFFSET 2.54057 -0.884171 1.56538
                  CHANNELS 3 Zrotation Xrotation Yrotation
                  End Site
                  {
                    OFFSET 1.62519 -0.234802 1.16502
                  }
                }
              }
              JOINT lMid1
              {
                OFFSET 8.24714 1.18213 3.41376
                CHANNELS 3 Zrotation Xrotation Yrotation
                JOINT lMid2
                {
                  OFFSET 3.10165 -0.590103 1.0647
                  CHANNELS 3 Zrotation Xrotation Yrotation
                  End Site
                  {
                    OFFSET 2.48547 -0.328903 0.83742
                  }
                }
              }
              JOINT lRing1
              {
                OFFSET 8.82822 0.546677 1.51678
                CHANNELS 3 Zrotation Xrotation Yrotation
                JOINT lRing2
                {
                  OFFSET 2.60934 -0.819778 -0.0198488
                  CHANNELS 3 Zrotation Xrotation Yrotation
                  End Site
                  {
                    OFFSET 2.33842 -0.294052 0.168128
                  }
                }
              }
              JOINT lPinky1
              {
                OFFSET 8.27202 -0.0477905 -0.4584
                CHANNELS 3 Zrotation Xrotation Yrotation
                JOINT lPinky2
                {
                  OFFSET 1.82734 -0.647385 -0.700984
                  CHANNELS 3 Zrotation Xrotation Yrotation
                  End Site
                  {
                    OFFSET 1.69225 -0.51767 -0.607171
                  }
                }
              }
            }
          }
        }
      }
    }
  }
  JOINT rButtock
  {
    OFFSET -8.77824 4.35084 1.2192
    CHANNELS 3 Zrotation Xrotation Yrotation
    JOINT rThigh
    {
      OFFSET 0 -1.70687 -2.19456
      CHANNELS 3 Zrotation Xrotation Yrotation
      JOINT rShin
      {
        OFFSET 0 -36.8199 0.73152
        CHANNELS 3 Zrotation Xrotation Yrotation
        JOINT rFoot
        {
          OFFSET 0.73152 -45.1104 -5.12064
          CHANNELS 3 Zrotation Xrotation Yrotation
          End Site
          {
            OFFSET -1.1221 -3.69964 12.103
          }
        }
      }
    }
  }
  JOINT lButtock
  {
    OFFSET 8.77824 4.35084 1.2192
    CHANNELS 3 Zrotation Xrotation Yrotation
    JOINT lThigh
    {
      OFFSET 0 -1.70687 -2.19456
      CHANNELS 3 Zrotation Xrotation Yrotation
      JOINT lShin
      {
        OFFSET 0 -36.8199 0.73152
        CHANNELS 3 Zrotation Xrotation Yrotation
        JOINT lFoot
        {
          OFFSET -0.73152 -45.1104 -5.12064
          CHANNELS 3 Zrotation Xrotation Yrotation
          End Site
          {
            OFFSET 1.1221 -3.69964 12.103
          }
        }
      }
    }
  }
}
MOTION
Frames:	4
Frame Time:	0.03333
0.7017000179897889 68.61239892998546 0.41300000800652964 10.372989654541016 -72.64920043945312 -8.789013862609863 -8.64953899383545 12.360801696777344 7.187359809875488 2.2968900203704834 -8.678650856018066 2.0000498294830322 -8.874699592590332 18.48330307006836 -15.263400077819824 12.46199893951416 -29.456098556518555 -27.34980010986328 -0.0 0.0 -0.0 -0.0 0.0 -0.0 1.1797400350458537e-13 4.770059672774829e-13 2.579879669270535e-13 24.445499420166016 -15.695100784301758 62.46659851074219 -10.621598243713379 -4.52730131149292 18.97319793701172 -0.047566499561071396 5.443260669708252 0.7693259119987488 3.231490075528143e-11 7.916140520869419e-10 -1.9012098562143365e-09 4.022049707175235e-11 1.3716499047689013e-09 -3.2886797729503314e-09 3.2320895959614404e-11 7.916169941779572e-10 -1.901220070266163e-09 7.730909824371338 5.474879741668701 0.4173140823841095 3.231409931303553e-11 7.916169941779572e-10 -1.9012098562143365e-09 2.9055399894714355 0.9651829600334167 0.10290199518203735 3.23200008423008e-11 7.916169941779572e-10 -1.9012098562143365e-09 10.27859878540039 0.73180091381073 0.025912316516041756 3.231480014131982e-11 7.916169941779572e-10 -1.901199864207115e-09 2.221669912338257 -0.733487069606781 -0.208919957280159 1.1774099490519108e-13 4.770099788255211e-13 2.5785900107863635e-13 -111.78499603271484 51.655399322509766 48.98799514770508 28.009700775146484 -40.36419677734375 -84.57599639892578 5.334710121154785 -52.88810348510742 10.703798294067383 -2.374289931328377e-10 -5.781519794162415e-12 1.0448899384618571e-10 -4.165669753586343e-10 -1.21934996821782e-11 1.7498599791387903e-10 -2.3743898514005934e-10 -5.779009649292677e-12 1.0449299758796826e-10 -7.730909824371338 5.474879741668701 -0.4173140823841095 -2.3742599553067123e-10 -5.781999878884392e-12 1.0448699544474138e-10 -2.9055399894714355 0.9651829600334167 -0.10290199518203735 -2.374320184905798e-10 -5.7812795349609925e-12 1.0448599624401922e-10 -10.27859878540039 0.73180091381073 -0.025912316516041756 -2.3742297017292913e-10 -5.780169745617236e-12 1.0447200049501504e-10 -2.221669912338257 -0.733487069606781 0.208919957280159 -2.0321699480147914e-16 0.0 -3.8825099822884138e-19 -32.650001525878906 -57.50180435180664 -23.420398712158203 -1.3817397356033325 63.243412017822266 1.5256298780441284 0.552515983581543 -2.0901002883911133 9.974961280822754 2.0321699480147914e-16 0.0 3.8825099822884138e-19 5.967190265655518 -7.533830165863037 -12.8489990234375 0.41756391525268555 52.07699966430664 -2.2082302570343018 12.14279842376709 -12.930399894714355 30.978696823120117
1.0214000154599145 68.44999752209007 0.973999996723907 9.515009880065918 -72.8766098022461 -8.278989791870117 -7.939809322357178 12.747699737548828 7.16749906539917 2.091670274734497 -8.607211112976074 2.0042600631713867 -8.723410606384277 18.738100051879883 -15.543702125549316 12.628499984741211 -30.052701950073242 -27.854101181030273 -0.0 0.0 -0.0 -0.0 0.0 -0.0 -9.035650103562248e-14 -3.067859822517699e-13 3.897729849381554e-14 23.08199691772461 -15.429800033569336 61.64179992675781 -11.1954984664917 -4.89838981628418 20.066497802734375 -0.026299694553017616 4.143570423126221 0.5840780138969421 -8.406150220352515e-10 -5.962799698444599e-10 3.568749809557126e-11 -1.4542599346967222e-09 -1.0317799947756612e-09 6.438150013110544e-11 -8.406089158086161e-10 -5.962759730415712e-10 3.567569850648766e-11 7.730909824371338 5.474879741668701 0.4173140823841095 -8.406159657248224e-10 -5.962759730415712e-10 3.5682398008551885e-11 2.9055399894714355 0.9651829600334167 0.10290199518203735 -8.406099705204895e-10 -5.962780269541668e-10 3.5686998495210176e-11 10.27859878540039 0.73180091381073 0.025912316516041756 -8.406150220352515e-10 -5.96274973840849e-10 3.569089815358417e-11 2.221669912338257 -0.733487069606781 -0.208919957280159 -9.049730501651046e-14 -3.06787988025789e-13 3.8877199528240813e-14 -111.09200286865234 52.510902404785156 48.58759689331055 27.98369789123535 -40.50010299682617 -84.8219985961914 5.677340030670166 -53.946502685546875 11.130499839782715 -5.710599770836211e-10 -5.7764498045953516e-11 1.9315599467106814e-11 -9.828609037754177e-10 -1.157820020414313e-10 6.299490009492592e-12 -5.710699690908427e-10 -5.776299577542332e-11 1.9324599212500182e-11 -7.730909824371338 5.474879741668701 -0.4173140823841095 -5.710579786821768e-10 -5.7763502314678306e-11 1.9307298815274265e-11 -2.9055399894714355 0.9651829600334167 -0.10290199518203735 -5.710689698901206e-10 -5.776220127207132e-11 1.9313800558862226e-11 -10.27859878540039 0.73180091381073 -0.025912316516041756 -5.710559802807325e-10 -5.776009878721844e-11 1.9306799214913184e-11 -2.221669912338257 -0.733487069606781 0.208919957280159 -2.0321699480147914e-16 0.0 -3.8825099822884138e-19 -31.981098175048828 -57.715797424316406 -22.341798782348633 -1.3364101648330688 62.58430099487305 1.442430019378662 0.4606209993362427 -1.394050121307373 9.964749336242676 2.0321699480147914e-16 0.0 3.8825099822884138e-19 5.163220405578613 -9.400819778442383 -13.98530101776123 0.5386528968811035 55.05829620361328 -2.2805802822113037 11.831700325012207 -12.320199012756348 30.516796112060547
2.0805000337760813 68.45630178669398 1.2750000034635955 8.844011306762695 -74.55810546875 -8.626017570495605 -7.450429439544678 13.210600852966309 7.265399932861328 2.0967602729797363 -8.498870849609375 2.04695987701416 -8.523838996887207 19.00539779663086 -15.776298522949219 12.77099895477295 -30.6758975982666 -28.26689910888672 -0.0 0.0 -0.0 -0.0 0.0 -0.0 -1.4875900262046465e-13 -4.1650596816975027e-13 1.8046898881979995e-13 21.899099349975586 -15.06350040435791 61.12629699707031 -11.848998069763184 -5.341119766235352 21.32240104675293 -0.012421399354934692 2.5005104541778564 0.35119500756263733 -1.955569928213663e-09 -1.7824498821372714e-10 2.9762699249591407e-11 -3.3759699480384597e-09 -3.088099775894193e-10 5.547529796645634e-11 -1.9555599362064413e-09 -1.7823999221011633e-10 2.974829757529385e-11 7.730909824371338 5.474879741668701 0.4173140823841095 -1.955569928213663e-09 -1.7823900688718197e-10 2.975780039049525e-11 2.9055399894714355 0.9651829600334167 0.10290199518203735 -1.955569928213663e-09 -1.7823999221011633e-10 2.9761099834546556e-11 10.27859878540039 0.73180091381073 0.025912316516041756 -1.955569928213663e-09 -1.7823700848573765e-10 2.9761398206984424e-11 2.221669912338257 -0.733487069606781 -0.208919957280159 -1.488509836222729e-13 -4.16510982604798e-13 1.803519898528616e-13 -110.08899688720703 53.42241287231445 47.860504150390625 27.963998794555664 -40.59880065917969 -85.002197265625 5.758519649505615 -54.18401336669922 11.23019790649414 -1.234569890762316e-09 -8.378139848552735e-11 -1.7879699110157077e-10 -2.1168200525778502e-09 -1.6104299838115566e-10 -3.6012698378939945e-10 -1.2345798827695376e-09 -8.378019805688197e-11 -1.7878999669651563e-10 -7.730909824371338 5.474879741668701 -0.4173140823841095 -1.234569890762316e-09 -8.378019805688197e-11 -1.7880498470734807e-10 -2.9055399894714355 0.9651829600334167 -0.10290199518203735 -1.2345798827695376e-09 -8.377879640031338e-11 -1.787989895030151e-10 -10.27859878540039 0.73180091381073 -0.025912316516041756 -1.2345600097773968e-09 -8.377649962643119e-11 -1.7880298630590374e-10 -2.221669912338257 -0.733487069606781 0.208919957280159 -2.0321699480147914e-16 0.0 -3.8825099822884138e-19 -30.62449836730957 -57.87529754638672 -20.471599578857422 -1.2838499546051025 61.80879592895508 1.3538901805877686 0.35655200481414795 -0.6704840660095215 9.933259010314941 2.0321699480147914e-16 0.0 3.8825099822884138e-19 4.390569686889648 -10.716898918151855 -14.883499145507812 0.6602399945259094 57.63960266113281 -2.361839532852173 11.616000175476074 -11.844900131225586 30.152599334716797
3.2372000402371457 68.22499743045151 1.6179999906680298 7.655013084411621 -74.63741302490234 -7.282983779907227 -7.184728622436523 13.749200820922852 7.482048988342285 2.31184983253479 -8.35365104675293 2.128109931945801 -8.276580810546875 19.285497665405273 -15.961099624633789 12.892499923706055 -31.32770347595215 -28.587596893310547 -0.0 0.0 -0.0 -0.0 0.0 -0.0 -5.723459900464078e-14 1.47846985305497e-13 6.824639594768533e-13 20.891399383544922 -14.612998962402344 60.92390060424805 -12.573099136352539 -5.850249767303467 22.742496490478516 -0.014230700209736824 0.5140660405158997 0.07078909873962402 -3.3125497900243772e-09 2.0457200378132256e-09 -1.9189900779537084e-09 -5.724899665437988e-09 3.540569837312546e-09 -3.315399954573195e-09 -3.3125497900243772e-09 2.0457298077758423e-09 -1.9190098399235467e-09 7.730909824371338 5.474879741668701 0.4173140823841095 -3.3125497900243772e-09 2.0457298077758423e-09 -1.9189900779537084e-09 2.9055399894714355 0.9651829600334167 0.10290199518203735 -3.3125497900243772e-09 2.0457298077758423e-09 -1.9189900779537084e-09 10.27859878540039 0.73180091381073 0.025912316516041756 -3.3125497900243772e-09 2.0457298077758423e-09 -1.9189900779537084e-09 2.221669912338257 -0.733487069606781 -0.208919957280159 -5.731920065541254e-14 1.4784198442297641e-13 6.822830061342655e-13 -108.74799346923828 54.38409423828125 46.78049850463867 27.95159912109375 -40.66110610961914 -85.11549377441406 5.564189910888672 -53.60189437866211 10.989898681640625 -2.2279500466737545e-09 -8.383250343912962e-11 -4.898489947002815e-10 -3.818449556547421e-09 -1.4797499336971498e-10 -9.242930310016106e-10 -2.227960038680976e-09 -8.383069932671461e-11 -4.898509931017259e-10 -7.730909824371338 5.474879741668701 -0.4173140823841095 -2.2279500466737545e-09 -8.383229527231251e-11 -4.898489947002815e-10 -2.9055399894714355 0.9651829600334167 -0.10290199518203735 -2.227960038680976e-09 -8.38312058659696e-11 -4.898539907038924e-10 -10.27859878540039 0.73180091381073 -0.025912316516041756 -2.2279500466737545e-09 -8.382949889806923e-11 -4.89857987506781e-10 -2.221669912338257 -0.733487069606781 0.208919957280159 -2.0321699480147914e-16 0.0 -3.8825099822884138e-19 -28.585298538208008 -57.943504333496094 -17.808795928955078 -1.2256098985671997 60.91679382324219 1.2614597082138062 0.24117803573608398 0.08074390143156052 9.880680084228516 2.0321699480147914e-16 0.0 3.8825099822884138e-19 3.692690372467041 -11.49360179901123 -15.528301239013672 0.7807000279426575 59.82090377807617 -2.4489500522613525 11.490399360656738 -11.507603645324707 29.882801055908203
